External Loads File
version=1
nRows=78
nColumns=13
Range=5.000000e-03-10 seconds
endheader
time 	forceRightX 	forceRightY 	forceRightZ 	pointRightX 	pointRightY 	pointRightZ 	forceLeftX 	forceLeftY 	forceLeftZ 	pointLeftX 	pointLeftY 	pointLeftZ 		
7.505000 85.802738 225.220802 -0.000000 0.296866 0.161139 -0.188361 -51.920600 -34.621528 -0.000000 0.357477 0.501805 -0.440841
7.510000 83.633400 189.405430 -0.000000 0.284868 0.163474 -0.187997 -55.547203 -17.035788 -0.000000 0.365841 0.499664 -0.441195
7.515000 80.116503 156.116368 -0.000000 0.273238 0.166399 -0.188134 -59.450962 3.677897 -0.000000 0.374075 0.496808 -0.441711
7.520000 75.651291 126.000233 -0.000000 0.261317 0.169981 -0.188112 -63.990683 27.826244 -0.000000 0.381799 0.493034 -0.442215
7.525000 70.816855 99.393467 -0.000000 0.249548 0.174160 -0.188294 -69.413534 55.676594 -0.000000 0.389301 0.488308 -0.442567
7.530000 66.016478 76.465295 -0.000000 0.238180 0.178860 -0.188342 -75.838599 87.268305 -0.000000 0.396585 0.482847 -0.443029
7.535000 61.492610 57.285409 -0.000000 0.227284 0.184206 -0.187939 -83.475380 122.261963 -0.000000 0.403237 0.476869 -0.443360
7.540000 57.625741 41.583864 -0.000000 0.216935 0.190101 -0.187472 -92.242280 160.248313 -0.000000 0.409606 0.470308 -0.443680
7.545000 54.609333 29.015041 -0.000000 0.207093 0.196507 -0.187282 -101.917206 200.521337 -0.000000 0.415833 0.463143 -0.443913
7.550000 52.465758 19.247383 -0.000000 0.197753 0.203468 -0.186873 -112.538682 241.941895 -0.000000 0.421713 0.455537 -0.444136
7.555000 51.174574 11.811296 -0.000000 0.189065 0.210878 -0.186280 -123.792540 283.354383 -0.000000 0.427517 0.447361 -0.444391
7.560000 50.608276 6.252131 -0.000000 0.181065 0.218794 -0.185572 -135.286244 323.537289 -0.000000 0.433165 0.438524 -0.444569
7.565000 50.551808 2.186987 -0.000000 0.173683 0.227280 -0.184724 -146.690440 361.305924 -0.000000 0.439073 0.429463 -0.444913
7.570000 50.739157 -0.642346 -0.000000 0.167110 0.236004 -0.183987 -157.936519 395.581863 -0.000000 0.444808 0.420066 -0.444721
7.575000 50.909609 -2.362246 -0.000000 0.161067 0.245048 -0.183839 -169.309729 425.478687 -0.000000 0.449919 0.410630 -0.444487
7.580000 50.844775 -3.127780 -0.000000 0.155610 0.254377 -0.183852 -180.283711 450.915811 -0.000000 0.454529 0.400971 -0.444371
7.585000 50.415531 -3.038634 -0.000000 0.150632 0.263931 -0.183962 -190.498322 472.340546 -0.000000 0.458709 0.390880 -0.444358
7.590000 49.610223 -2.217214 -0.000000 0.146479 0.273757 -0.184303 -199.719501 490.654147 -0.000000 0.462788 0.380399 -0.444350
7.595000 48.501905 -0.758860 -0.000000 0.142917 0.283726 -0.184558 -208.780081 506.571740 -0.000000 0.466246 0.369771 -0.444350
7.600000 47.180450 1.016257 -0.000000 0.140014 0.293985 -0.185064 -216.949549 521.466993 -0.000000 0.469179 0.358887 -0.444389
7.605000 45.737392 2.868565 -0.000000 0.137665 0.304300 -0.185705 -224.476996 536.178678 -0.000000 0.471556 0.347876 -0.444588
7.610000 44.249478 4.518501 -0.000000 0.136129 0.314983 -0.186143 -230.730645 551.653982 -0.000000 0.473290 0.336899 -0.444835
7.615000 42.751303 5.834529 -0.000000 0.135234 0.325549 -0.186522 -236.096004 568.118309 -0.000000 0.474471 0.326022 -0.444652
7.620000 41.250360 6.629029 -0.000000 0.135305 0.336281 -0.186628 -239.617924 586.102258 -0.000000 0.475164 0.315190 -0.444708
7.625000 39.729086 6.785656 -0.000000 0.136097 0.347067 -0.187118 -240.648261 605.798834 -0.000000 0.474865 0.304199 -0.444675
7.630000 38.146744 6.271345 -0.000000 0.137677 0.357857 -0.187667 -239.271552 626.930181 -0.000000 0.473871 0.293235 -0.444589
7.635000 36.452647 5.049233 -0.000000 0.140021 0.368646 -0.188243 -235.134817 649.192866 -0.000000 0.472221 0.282283 -0.444632
7.640000 34.582723 3.071956 -0.000000 0.143237 0.379804 -0.188733 -227.056611 672.302518 -0.000000 0.469911 0.271335 -0.444727
7.645000 32.441680 0.528418 -0.000000 0.147027 0.390001 -0.189348 -217.964777 694.368713 -0.000000 0.466941 0.260617 -0.444835
7.650000 29.950552 -2.644239 -0.000000 0.151677 0.400338 -0.189936 -205.888407 715.101422 -0.000000 0.463270 0.250463 -0.444847
7.655000 27.005217 -6.377669 -0.000000 0.156979 0.410420 -0.190464 -191.200914 733.401488 -0.000000 0.459080 0.240604 -0.444817
7.660000 23.521460 -10.611785 -0.000000 0.163011 0.420215 -0.190897 -174.123551 748.333980 -0.000000 0.454366 0.231097 -0.444765
7.665000 19.458440 -15.296772 -0.000000 0.169657 0.429669 -0.191487 -154.868629 759.130586 -0.000000 0.449100 0.221918 -0.444699
7.670000 14.819209 -20.378765 -0.000000 0.176868 0.438872 -0.191847 -133.994081 765.187243 -0.000000 0.443357 0.213215 -0.444608
7.675000 9.634948 -25.798477 -0.000000 0.184647 0.447454 -0.192239 -112.461775 766.157254 -0.000000 0.437122 0.204989 -0.444544
7.680000 3.971537 -31.512248 -0.000000 0.192079 0.455642 -0.194093 -91.875930 761.962172 -0.000000 0.430446 0.197232 -0.444522
7.685000 -2.413995 -37.503093 -0.000000 0.202531 0.463404 -0.192541 -66.721209 753.537791 -0.000000 0.423384 0.189939 -0.444493
7.690000 -9.156301 -43.698761 -0.000000 0.211588 0.470782 -0.193539 -45.009809 740.466358 -0.000000 0.415990 0.183094 -0.444405
7.695000 -16.326026 -50.021773 -0.000000 0.221068 0.477585 -0.194046 -24.051238 723.618485 -0.000000 0.408190 0.176880 -0.444355
7.700000 -23.928328 -56.264464 -0.000000 0.231279 0.483833 -0.194269 -3.108991 703.491546 -0.000000 0.400045 0.171171 -0.444322
7.705000 -31.825415 -62.146828 -0.000000 0.241874 0.489551 -0.194709 17.067063 680.427948 -0.000000 0.391626 0.166113 -0.444219
7.710000 -39.891230 -67.272063 -0.000000 0.252883 0.494628 -0.194947 36.627422 654.697155 -0.000000 0.382834 0.161641 -0.444132
7.715000 -47.886641 -71.222677 -0.000000 0.264113 0.499101 -0.195167 54.940687 626.553614 -0.000000 0.373788 0.157826 -0.444024
7.720000 -55.592731 -73.543852 -0.000000 0.275565 0.502963 -0.195336 71.951942 596.235941 -0.000000 0.364504 0.154679 -0.443935
7.725000 -62.721131 -73.857739 -0.000000 0.287298 0.506066 -0.195567 87.212470 564.020555 -0.000000 0.355059 0.152140 -0.443874
7.730000 -68.991520 -71.882999 -0.000000 0.299148 0.508474 -0.195652 100.333479 530.150965 -0.000000 0.345490 0.150199 -0.443781
7.735000 -74.137104 -67.481898 -0.000000 0.311109 0.510120 -0.195895 110.764033 494.834905 -0.000000 0.335928 0.149025 -0.443702
7.740000 -77.999751 -60.558796 -0.000000 0.323023 0.511114 -0.195996 118.357776 458.210961 -0.000000 0.326299 0.148433 -0.443652
7.745000 -80.475502 -51.066630 -0.000000 0.334833 0.511423 -0.196185 122.891206 420.524430 -0.000000 0.316708 0.148486 -0.443611
7.750000 -81.606643 -38.867682 -0.000000 0.346681 0.510992 -0.196379 124.684550 381.956755 -0.000000 0.307144 0.149316 -0.443543
7.755000 -81.482118 -23.958480 -0.000000 0.358319 0.509897 -0.196422 123.638288 342.973354 -0.000000 0.297669 0.150734 -0.443517
7.760000 -80.376180 -6.299338 -0.000000 0.369893 0.508045 -0.196462 120.361446 304.051248 -0.000000 0.288237 0.152847 -0.443463
7.765000 -78.652767 13.970267 -0.000000 0.381103 0.505322 -0.196355 115.085935 265.950236 -0.000000 0.278991 0.155649 -0.443383
7.770000 -76.766193 36.802053 -0.000000 0.392013 0.501739 -0.196399 108.422483 229.311424 -0.000000 0.269903 0.159120 -0.443331
7.775000 -75.240056 62.105849 -0.000000 0.402174 0.497482 -0.196571 100.661746 194.904104 -0.000000 0.260994 0.163220 -0.443110
7.780000 -74.321684 90.184797 -0.000000 0.412239 0.491731 -0.196625 92.881064 163.041243 -0.000000 0.252048 0.168001 -0.442243
7.785000 -74.708020 120.897544 -0.000000 0.421462 0.485956 -0.196430 84.822732 134.611172 -0.000000 0.243638 0.173270 -0.442215
7.790000 -76.592471 154.590438 -0.000000 0.429951 0.479652 -0.196236 77.294631 109.711812 -0.000000 0.235480 0.179184 -0.442149
7.795000 -80.131839 191.360400 -0.000000 0.438051 0.472846 -0.195746 70.637433 88.420331 -0.000000 0.227701 0.185751 -0.442055
7.800000 -85.213053 231.003788 -0.000000 0.445819 0.465214 -0.195044 65.044384 70.607745 -0.000000 0.220314 0.192790 -0.441936
7.805000 -91.736264 272.735600 -0.000000 0.453253 0.456994 -0.194843 60.448750 56.088969 -0.000000 0.213372 0.200190 -0.441959
7.810000 -99.216598 315.339010 -0.000000 0.460488 0.448237 -0.194200 56.754484 44.576647 -0.000000 0.206924 0.208157 -0.441901
7.815000 -107.685139 357.067122 -0.000000 0.467333 0.439140 -0.194020 53.753019 35.872614 -0.000000 0.200998 0.216308 -0.441930
7.820000 -116.600351 396.328870 -0.000000 0.473799 0.429693 -0.193724 51.352932 29.608563 -0.000000 0.195547 0.224760 -0.442049
7.825000 -125.428352 431.816363 -0.000000 0.479875 0.419908 -0.193618 49.471572 25.383867 -0.000000 0.190675 0.233683 -0.442145
7.830000 -133.895814 462.650464 -0.000000 0.485660 0.409744 -0.193717 48.039872 22.793497 -0.000000 0.186507 0.242895 -0.442339
7.835000 -141.976118 488.444724 -0.000000 0.491046 0.399367 -0.194035 47.006290 21.412674 -0.000000 0.182851 0.252373 -0.442552
7.840000 -150.003394 509.219948 -0.000000 0.495958 0.389026 -0.194327 46.313216 20.830621 -0.000000 0.179878 0.262099 -0.442600
7.845000 -157.461196 525.688283 -0.000000 0.500414 0.378542 -0.194459 45.917943 20.598534 -0.000000 0.177448 0.272110 -0.442836
7.850000 -164.404233 538.741367 -0.000000 0.504316 0.367843 -0.194612 45.708723 20.399290 -0.000000 0.175627 0.282218 -0.442942
7.855000 -170.543929 549.541579 -0.000000 0.507702 0.357072 -0.194647 45.516117 19.970008 -0.000000 0.174397 0.292614 -0.443007
7.860000 -175.606291 559.203418 -0.000000 0.510633 0.346176 -0.194847 45.123523 19.160120 -0.000000 0.173949 0.303213 -0.442992
7.865000 -179.575767 568.538757 -0.000000 0.512694 0.335263 -0.194847 44.381624 17.961788 -0.000000 0.173883 0.313807 -0.443014
7.870000 -181.595062 578.300170 -0.000000 0.514041 0.324306 -0.194821 43.333783 16.375912 -0.000000 0.174417 0.324592 -0.443018
7.875000 -182.769406 588.295214 -0.000000 0.514651 0.314112 -0.194817 42.084927 14.556432 -0.000000 0.175482 0.335491 -0.443008
7.880000 -178.998700 599.682276 -0.000000 0.515051 0.302438 -0.194017 40.875326 12.249871 -0.000000 0.177421 0.346339 -0.443355
7.885000 -174.030559 611.020435 -0.000000 0.513065 0.291685 -0.195551 39.664244 9.732236 -0.000000 0.179455 0.357188 -0.443286
7.890000 -166.951430 622.228083 -0.000000 0.510853 0.281118 -0.195454 38.400226 6.938162 -0.000000 0.182203 0.367929 -0.443164
